# xmcd
#
# Track frame offsets:
#       150
#       19782
#       33852
#       55604
#       75632
#       91214
#       105563
#       121520
#       141494
#
# Disc length: 2145 seconds
#
# Revision: 1
# Processed by: cddbd v1.4PL0 Copyright (c) Steve Scherf et al.
# Submitted via: MusiCat 1.1
#
DISCID=62085f09
DTITLE=Hot Rod And The Blues DeVilles - Built For Comfort
DYEAR=1900
DGENRE=
TTITLE0=Little By Little
TTITLE1=Remember The Day
TTITLE2=Knife Don't Cut No More
TTITLE3=Givin It Up For Your Love
TTITLE4=Change My Mind
TTITLE5=Treat Me So Low
TTITLE6=Need Your Love
TTITLE7=Cheaper To Keep Her
TTITLE8=After Hours
EXTD=\n\n
EXTT0=
EXTT1=
EXTT2=
EXTT3=
EXTT4=
EXTT5=
EXTT6=
EXTT7=
EXTT8=
PLAYORDER=
